<svg width="40" height="40" viewBox="0 0 40 40" fill="none" xmlns="http://www.w3.org/2000/svg">
<path d="M15 6.66667H9.66667C8.25245 6.66667 7.54535 6.66667 7.10601 7.10601C6.66667 7.54535 6.66667 8.25245 6.66667 9.66667V15" stroke="#0060FF" stroke-linecap="round"/>
<path d="M15 33.3333H9.66667C8.25245 33.3333 7.54535 33.3333 7.10601 32.894C6.66667 32.4547 6.66667 31.7475 6.66667 30.3333V25" stroke="#0060FF" stroke-linecap="round"/>
<path d="M25 6.66667H30.3333C31.7475 6.66667 32.4547 6.66667 32.894 7.10601C33.3333 7.54535 33.3333 8.25245 33.3333 9.66667V15" stroke="#0060FF" stroke-linecap="round"/>
<path d="M25 33.3333H30.3333C31.7475 33.3333 32.4547 33.3333 32.894 32.894C33.3333 32.4547 33.3333 31.7475 33.3333 30.3333V25" stroke="#0060FF" stroke-linecap="round"/>
</svg>
